<mxfile host="Electron" modified="2023-12-31T23:04:57.865Z" agent="Mozilla/5.0 (Windows NT 10.0; Win64; x64) AppleWebKit/537.36 (KHTML, like Gecko) draw.io/22.1.16 Chrome/120.0.6099.109 Electron/28.1.0 Safari/537.36" etag="IYRzyhEcEi3Gadw5TLz7" version="22.1.16" type="device">
  <diagram name="ページ1" id="LE8fIzdrHe0wcv1LTvfw">
    <mxGraphModel dx="2123" dy="1255" grid="1" gridSize="10" guides="1" tooltips="1" connect="1" arrows="1" fold="1" page="1" pageScale="1" pageWidth="1600" pageHeight="1200" math="0" shadow="0">
      <root>
        <mxCell id="0" />
        <mxCell id="cFaB45KztUIKXS-_cTrr-4" value="背景" style="locked=1;" parent="0" visible="0" />
        <mxCell id="cFaB45KztUIKXS-_cTrr-5" value="" style="rounded=0;whiteSpace=wrap;html=1;strokeWidth=3;" parent="cFaB45KztUIKXS-_cTrr-4" vertex="1">
          <mxGeometry x="1" y="1" width="1595" height="1180" as="geometry" />
        </mxCell>
        <mxCell id="cFaB45KztUIKXS-_cTrr-6" value="" style="rounded=0;whiteSpace=wrap;html=1;fillColor=#B3B3B3;fontColor=#333333;strokeColor=#666666;" parent="cFaB45KztUIKXS-_cTrr-4" vertex="1">
          <mxGeometry width="1595" height="60" as="geometry" />
        </mxCell>
        <mxCell id="cFaB45KztUIKXS-_cTrr-7" value="&lt;font style=&quot;font-size: 48px;&quot;&gt;×&lt;/font&gt;" style="rounded=0;whiteSpace=wrap;html=1;" parent="cFaB45KztUIKXS-_cTrr-4" vertex="1">
          <mxGeometry x="1550" y="10" width="40" height="40" as="geometry" />
        </mxCell>
        <mxCell id="cFaB45KztUIKXS-_cTrr-8" value="" style="rounded=0;whiteSpace=wrap;html=1;" parent="cFaB45KztUIKXS-_cTrr-4" vertex="1">
          <mxGeometry x="830" y="670" width="120" height="60" as="geometry" />
        </mxCell>
        <mxCell id="cFaB45KztUIKXS-_cTrr-9" value="ウインドウ" style="locked=1;" parent="0" />
        <mxCell id="cFaB45KztUIKXS-_cTrr-10" value="" style="rounded=0;whiteSpace=wrap;html=1;strokeWidth=3;" parent="cFaB45KztUIKXS-_cTrr-9" vertex="1">
          <mxGeometry x="1" y="1" width="1969" height="2169" as="geometry" />
        </mxCell>
        <mxCell id="cFaB45KztUIKXS-_cTrr-11" value="" style="rounded=0;whiteSpace=wrap;html=1;fillColor=#B3B3B3;fontColor=#333333;strokeColor=#666666;" parent="cFaB45KztUIKXS-_cTrr-9" vertex="1">
          <mxGeometry width="1595" height="60" as="geometry" />
        </mxCell>
        <mxCell id="vKDBNKoQQVE-0nd1KgR7-112" value="" style="line;strokeWidth=2;direction=south;html=1;dashed=1;dashPattern=12 12;" vertex="1" parent="cFaB45KztUIKXS-_cTrr-9">
          <mxGeometry x="1600" y="10" width="10" height="2160" as="geometry" />
        </mxCell>
        <mxCell id="cFaB45KztUIKXS-_cTrr-12" value="&lt;font style=&quot;font-size: 48px;&quot;&gt;×&lt;/font&gt;" style="rounded=0;whiteSpace=wrap;html=1;" parent="cFaB45KztUIKXS-_cTrr-9" vertex="1">
          <mxGeometry x="1550" y="10" width="40" height="40" as="geometry" />
        </mxCell>
        <mxCell id="cFaB45KztUIKXS-_cTrr-14" value="名称未設定レイヤ" style="" parent="0" />
        <mxCell id="vKDBNKoQQVE-0nd1KgR7-4" value="&lt;span style=&quot;font-size: 30px;&quot;&gt;保存予定ファイル&lt;/span&gt;" style="text;html=1;strokeColor=none;fillColor=none;align=left;verticalAlign=middle;whiteSpace=wrap;rounded=0;" vertex="1" parent="cFaB45KztUIKXS-_cTrr-14">
          <mxGeometry x="46" y="230" width="250" height="40" as="geometry" />
        </mxCell>
        <mxCell id="vKDBNKoQQVE-0nd1KgR7-5" value="&lt;span style=&quot;font-size: 30px;&quot;&gt;3&lt;/span&gt;" style="rounded=0;whiteSpace=wrap;html=1;align=right;fillColor=#CCCCCC;" vertex="1" parent="cFaB45KztUIKXS-_cTrr-14">
          <mxGeometry x="322" y="229" width="108" height="48" as="geometry" />
        </mxCell>
        <mxCell id="vKDBNKoQQVE-0nd1KgR7-6" value="&lt;span style=&quot;font-size: 30px;&quot;&gt;GB以内&lt;/span&gt;" style="text;html=1;strokeColor=none;fillColor=none;align=left;verticalAlign=middle;whiteSpace=wrap;rounded=0;" vertex="1" parent="cFaB45KztUIKXS-_cTrr-14">
          <mxGeometry x="432" y="231" width="250" height="40" as="geometry" />
        </mxCell>
        <mxCell id="vKDBNKoQQVE-0nd1KgR7-7" value="&lt;font style=&quot;font-size: 36px;&quot;&gt;aabbccc.doc&lt;/font&gt;" style="rounded=0;whiteSpace=wrap;html=1;align=left;fillColor=#CCCCCC;" vertex="1" parent="cFaB45KztUIKXS-_cTrr-14">
          <mxGeometry x="92" y="309" width="408" height="48" as="geometry" />
        </mxCell>
        <mxCell id="vKDBNKoQQVE-0nd1KgR7-8" value="&lt;font style=&quot;font-size: 36px;&quot;&gt;xxyyzz.mp4&lt;/font&gt;" style="rounded=0;whiteSpace=wrap;html=1;align=left;fillColor=#CCCCCC;" vertex="1" parent="cFaB45KztUIKXS-_cTrr-14">
          <mxGeometry x="92" y="369" width="408" height="48" as="geometry" />
        </mxCell>
        <mxCell id="vKDBNKoQQVE-0nd1KgR7-9" value="&lt;span style=&quot;font-size: 30px;&quot;&gt;11&lt;/span&gt;" style="rounded=0;whiteSpace=wrap;html=1;align=right;fillColor=#CCCCCC;" vertex="1" parent="cFaB45KztUIKXS-_cTrr-14">
          <mxGeometry x="532" y="309" width="108" height="48" as="geometry" />
        </mxCell>
        <mxCell id="vKDBNKoQQVE-0nd1KgR7-10" value="&lt;span style=&quot;font-size: 30px;&quot;&gt;150&lt;/span&gt;" style="rounded=0;whiteSpace=wrap;html=1;align=right;fillColor=#CCCCCC;" vertex="1" parent="cFaB45KztUIKXS-_cTrr-14">
          <mxGeometry x="532" y="369" width="108" height="48" as="geometry" />
        </mxCell>
        <mxCell id="vKDBNKoQQVE-0nd1KgR7-11" value="&lt;span style=&quot;font-size: 30px;&quot;&gt;MB&lt;/span&gt;" style="text;html=1;strokeColor=none;fillColor=none;align=left;verticalAlign=middle;whiteSpace=wrap;rounded=0;" vertex="1" parent="cFaB45KztUIKXS-_cTrr-14">
          <mxGeometry x="652" y="311" width="88" height="40" as="geometry" />
        </mxCell>
        <mxCell id="vKDBNKoQQVE-0nd1KgR7-12" value="&lt;span style=&quot;font-size: 30px;&quot;&gt;MB&lt;/span&gt;" style="text;html=1;strokeColor=none;fillColor=none;align=left;verticalAlign=middle;whiteSpace=wrap;rounded=0;" vertex="1" parent="cFaB45KztUIKXS-_cTrr-14">
          <mxGeometry x="652" y="370" width="88" height="40" as="geometry" />
        </mxCell>
        <mxCell id="vKDBNKoQQVE-0nd1KgR7-13" value="&lt;span style=&quot;font-size: 30px;&quot;&gt;現在の合計&lt;/span&gt;" style="text;html=1;strokeColor=none;fillColor=none;align=left;verticalAlign=middle;whiteSpace=wrap;rounded=0;" vertex="1" parent="cFaB45KztUIKXS-_cTrr-14">
          <mxGeometry x="284" y="440" width="250" height="40" as="geometry" />
        </mxCell>
        <mxCell id="vKDBNKoQQVE-0nd1KgR7-14" value="&lt;span style=&quot;font-size: 30px;&quot;&gt;163&lt;/span&gt;" style="rounded=0;whiteSpace=wrap;html=1;align=right;fillColor=#CCCCCC;" vertex="1" parent="cFaB45KztUIKXS-_cTrr-14">
          <mxGeometry x="532" y="439" width="108" height="48" as="geometry" />
        </mxCell>
        <mxCell id="vKDBNKoQQVE-0nd1KgR7-15" value="&lt;span style=&quot;font-size: 30px;&quot;&gt;MB&lt;/span&gt;" style="text;html=1;strokeColor=none;fillColor=none;align=left;verticalAlign=middle;whiteSpace=wrap;rounded=0;" vertex="1" parent="cFaB45KztUIKXS-_cTrr-14">
          <mxGeometry x="652" y="442" width="88" height="40" as="geometry" />
        </mxCell>
        <mxCell id="vKDBNKoQQVE-0nd1KgR7-16" value="&lt;span style=&quot;font-size: 30px;&quot;&gt;Upload&lt;/span&gt;" style="rounded=1;whiteSpace=wrap;html=1;fillColor=#FFFFFF;strokeWidth=3;" vertex="1" parent="cFaB45KztUIKXS-_cTrr-14">
          <mxGeometry x="1286" y="145" width="210" height="60" as="geometry" />
        </mxCell>
        <mxCell id="vKDBNKoQQVE-0nd1KgR7-17" value="&lt;span style=&quot;font-size: 30px;&quot;&gt;レシート・領収書アップロード／読み込み&lt;/span&gt;" style="text;html=1;strokeColor=none;fillColor=none;align=left;verticalAlign=middle;whiteSpace=wrap;rounded=0;" vertex="1" parent="cFaB45KztUIKXS-_cTrr-14">
          <mxGeometry x="20" y="90" width="600" height="40" as="geometry" />
        </mxCell>
        <mxCell id="vKDBNKoQQVE-0nd1KgR7-18" value="" style="rounded=0;whiteSpace=wrap;html=1;strokeWidth=3;" vertex="1" parent="cFaB45KztUIKXS-_cTrr-14">
          <mxGeometry x="50" y="145" width="1203" height="60" as="geometry" />
        </mxCell>
        <mxCell id="vKDBNKoQQVE-0nd1KgR7-20" value="&lt;span style=&quot;font-size: 30px;&quot;&gt;保存&lt;/span&gt;" style="rounded=1;whiteSpace=wrap;html=1;strokeWidth=3;" vertex="1" parent="cFaB45KztUIKXS-_cTrr-14">
          <mxGeometry x="1350" y="2070" width="210" height="60" as="geometry" />
        </mxCell>
        <mxCell id="vKDBNKoQQVE-0nd1KgR7-21" value="&lt;span style=&quot;font-size: 30px;&quot;&gt;キャンセル&lt;/span&gt;" style="rounded=1;whiteSpace=wrap;html=1;strokeWidth=3;" vertex="1" parent="cFaB45KztUIKXS-_cTrr-14">
          <mxGeometry x="1120" y="2070" width="210" height="60" as="geometry" />
        </mxCell>
        <mxCell id="vKDBNKoQQVE-0nd1KgR7-22" value="&lt;span style=&quot;font-size: 30px;&quot;&gt;証票発行者住所&lt;/span&gt;" style="rounded=0;whiteSpace=wrap;html=1;align=right;dashed=1;dashPattern=8 8;verticalAlign=bottom;" vertex="1" parent="cFaB45KztUIKXS-_cTrr-14">
          <mxGeometry x="76" y="983" width="310" height="46" as="geometry" />
        </mxCell>
        <mxCell id="vKDBNKoQQVE-0nd1KgR7-23" value="&lt;span style=&quot;font-size: 30px;&quot;&gt;123&lt;br&gt;&lt;/span&gt;" style="rounded=0;whiteSpace=wrap;html=1;align=right;" vertex="1" parent="cFaB45KztUIKXS-_cTrr-14">
          <mxGeometry x="410" y="730" width="170" height="48" as="geometry" />
        </mxCell>
        <mxCell id="vKDBNKoQQVE-0nd1KgR7-24" value="&lt;span style=&quot;font-size: 30px;&quot;&gt;郵便番号&lt;/span&gt;" style="rounded=0;whiteSpace=wrap;html=1;align=right;dashed=1;dashPattern=8 8;verticalAlign=bottom;" vertex="1" parent="cFaB45KztUIKXS-_cTrr-14">
          <mxGeometry x="80" y="732" width="310" height="46" as="geometry" />
        </mxCell>
        <mxCell id="vKDBNKoQQVE-0nd1KgR7-25" value="&lt;span style=&quot;font-size: 30px;&quot;&gt;456x&lt;br&gt;&lt;/span&gt;" style="rounded=0;whiteSpace=wrap;html=1;align=right;" vertex="1" parent="cFaB45KztUIKXS-_cTrr-14">
          <mxGeometry x="640" y="730" width="170" height="48" as="geometry" />
        </mxCell>
        <mxCell id="vKDBNKoQQVE-0nd1KgR7-26" value="&lt;span style=&quot;font-size: 30px;&quot;&gt;住所(郵便番号)&lt;/span&gt;" style="rounded=0;whiteSpace=wrap;html=1;align=right;dashed=1;dashPattern=8 8;verticalAlign=bottom;" vertex="1" parent="cFaB45KztUIKXS-_cTrr-14">
          <mxGeometry x="80" y="792" width="310" height="46" as="geometry" />
        </mxCell>
        <mxCell id="vKDBNKoQQVE-0nd1KgR7-27" value="&lt;span style=&quot;font-size: 30px;&quot;&gt;番地&lt;/span&gt;" style="rounded=0;whiteSpace=wrap;html=1;align=right;dashed=1;dashPattern=8 8;verticalAlign=bottom;" vertex="1" parent="cFaB45KztUIKXS-_cTrr-14">
          <mxGeometry x="80" y="855" width="310" height="46" as="geometry" />
        </mxCell>
        <mxCell id="vKDBNKoQQVE-0nd1KgR7-28" value="&lt;span style=&quot;font-size: 30px;&quot;&gt;建物&lt;/span&gt;" style="rounded=0;whiteSpace=wrap;html=1;align=right;dashed=1;dashPattern=8 8;verticalAlign=bottom;" vertex="1" parent="cFaB45KztUIKXS-_cTrr-14">
          <mxGeometry x="80" y="917" width="310" height="46" as="geometry" />
        </mxCell>
        <mxCell id="vKDBNKoQQVE-0nd1KgR7-29" value="&lt;span style=&quot;font-size: 30px;&quot;&gt;東京都千代田区霞ケ浦&lt;/span&gt;" style="rounded=0;whiteSpace=wrap;html=1;align=left;" vertex="1" parent="cFaB45KztUIKXS-_cTrr-14">
          <mxGeometry x="410" y="791" width="550" height="48" as="geometry" />
        </mxCell>
        <mxCell id="vKDBNKoQQVE-0nd1KgR7-30" value="&lt;span style=&quot;font-size: 30px;&quot;&gt;x丁目y番地&lt;/span&gt;" style="rounded=0;whiteSpace=wrap;html=1;align=left;" vertex="1" parent="cFaB45KztUIKXS-_cTrr-14">
          <mxGeometry x="410" y="857" width="550" height="48" as="geometry" />
        </mxCell>
        <mxCell id="vKDBNKoQQVE-0nd1KgR7-31" value="&lt;span style=&quot;font-size: 30px;&quot;&gt;zzzabcビル3Fqqq号室&lt;/span&gt;" style="rounded=0;whiteSpace=wrap;html=1;align=left;" vertex="1" parent="cFaB45KztUIKXS-_cTrr-14">
          <mxGeometry x="410" y="919" width="550" height="48" as="geometry" />
        </mxCell>
        <mxCell id="vKDBNKoQQVE-0nd1KgR7-32" value="&lt;span style=&quot;font-size: 30px;&quot;&gt;－&lt;/span&gt;" style="rounded=0;whiteSpace=wrap;html=1;align=right;dashed=1;dashPattern=8 8;verticalAlign=bottom;" vertex="1" parent="cFaB45KztUIKXS-_cTrr-14">
          <mxGeometry x="591" y="732" width="40" height="46" as="geometry" />
        </mxCell>
        <mxCell id="vKDBNKoQQVE-0nd1KgR7-33" value="&lt;span style=&quot;font-size: 30px;&quot;&gt;証票発行年月日&lt;/span&gt;" style="rounded=0;whiteSpace=wrap;html=1;align=right;dashed=1;dashPattern=8 8;verticalAlign=bottom;" vertex="1" parent="cFaB45KztUIKXS-_cTrr-14">
          <mxGeometry x="70" y="516" width="330" height="46" as="geometry" />
        </mxCell>
        <mxCell id="vKDBNKoQQVE-0nd1KgR7-34" value="&lt;font style=&quot;font-size: 30px;&quot;&gt;20221201&lt;/font&gt;" style="rounded=0;whiteSpace=wrap;html=1;align=right;" vertex="1" parent="cFaB45KztUIKXS-_cTrr-14">
          <mxGeometry x="410" y="514" width="250" height="48" as="geometry" />
        </mxCell>
        <mxCell id="vKDBNKoQQVE-0nd1KgR7-37" value="&lt;span style=&quot;font-size: 30px;&quot;&gt;証票発行者名&lt;/span&gt;" style="rounded=0;whiteSpace=wrap;html=1;align=right;dashed=1;dashPattern=8 8;verticalAlign=bottom;" vertex="1" parent="cFaB45KztUIKXS-_cTrr-14">
          <mxGeometry x="100" y="587" width="290" height="46" as="geometry" />
        </mxCell>
        <mxCell id="vKDBNKoQQVE-0nd1KgR7-38" value="&lt;span style=&quot;font-size: 30px;&quot;&gt;一般ショップ次郎が経営&lt;/span&gt;" style="rounded=0;whiteSpace=wrap;html=1;align=left;" vertex="1" parent="cFaB45KztUIKXS-_cTrr-14">
          <mxGeometry x="410" y="589" width="880" height="48" as="geometry" />
        </mxCell>
        <mxCell id="vKDBNKoQQVE-0nd1KgR7-42" value="&lt;font style=&quot;font-size: 30px;&quot;&gt;0123&lt;/font&gt;" style="rounded=0;whiteSpace=wrap;html=1;align=right;" vertex="1" parent="cFaB45KztUIKXS-_cTrr-14">
          <mxGeometry x="407" y="980" width="170" height="48" as="geometry" />
        </mxCell>
        <mxCell id="vKDBNKoQQVE-0nd1KgR7-43" value="&lt;span style=&quot;font-size: 30px;&quot;&gt;電話番号&lt;/span&gt;" style="rounded=0;whiteSpace=wrap;html=1;align=right;dashed=1;dashPattern=8 8;verticalAlign=bottom;" vertex="1" parent="cFaB45KztUIKXS-_cTrr-14">
          <mxGeometry x="77" y="982" width="310" height="46" as="geometry" />
        </mxCell>
        <mxCell id="vKDBNKoQQVE-0nd1KgR7-44" value="&lt;span style=&quot;font-size: 30px;&quot;&gt;45&lt;br&gt;&lt;/span&gt;" style="rounded=0;whiteSpace=wrap;html=1;align=right;" vertex="1" parent="cFaB45KztUIKXS-_cTrr-14">
          <mxGeometry x="637" y="980" width="170" height="48" as="geometry" />
        </mxCell>
        <mxCell id="vKDBNKoQQVE-0nd1KgR7-45" value="&lt;span style=&quot;font-size: 30px;&quot;&gt;－&lt;/span&gt;" style="rounded=0;whiteSpace=wrap;html=1;align=right;dashed=1;dashPattern=8 8;verticalAlign=bottom;" vertex="1" parent="cFaB45KztUIKXS-_cTrr-14">
          <mxGeometry x="588" y="982" width="40" height="46" as="geometry" />
        </mxCell>
        <mxCell id="vKDBNKoQQVE-0nd1KgR7-46" value="&lt;span style=&quot;font-size: 30px;&quot;&gt;678z&lt;br&gt;&lt;/span&gt;" style="rounded=0;whiteSpace=wrap;html=1;align=right;" vertex="1" parent="cFaB45KztUIKXS-_cTrr-14">
          <mxGeometry x="877" y="980" width="170" height="48" as="geometry" />
        </mxCell>
        <mxCell id="vKDBNKoQQVE-0nd1KgR7-47" value="&lt;span style=&quot;font-size: 30px;&quot;&gt;－&lt;/span&gt;" style="rounded=0;whiteSpace=wrap;html=1;align=right;dashed=1;dashPattern=8 8;verticalAlign=bottom;" vertex="1" parent="cFaB45KztUIKXS-_cTrr-14">
          <mxGeometry x="828" y="982" width="40" height="46" as="geometry" />
        </mxCell>
        <mxCell id="vKDBNKoQQVE-0nd1KgR7-51" value="&lt;span style=&quot;font-size: 30px;&quot;&gt;証票発行者住所&lt;/span&gt;" style="rounded=0;whiteSpace=wrap;html=1;align=right;dashed=1;dashPattern=8 8;verticalAlign=bottom;" vertex="1" parent="cFaB45KztUIKXS-_cTrr-14">
          <mxGeometry x="100" y="657" width="290" height="46" as="geometry" />
        </mxCell>
        <mxCell id="vKDBNKoQQVE-0nd1KgR7-52" value="&lt;span style=&quot;font-size: 30px;&quot;&gt;東京都千代田区霞ケ浦x丁目y番地zzzabcビル3Fqqq号室&lt;/span&gt;" style="rounded=0;whiteSpace=wrap;html=1;align=left;" vertex="1" parent="cFaB45KztUIKXS-_cTrr-14">
          <mxGeometry x="410" y="659" width="880" height="48" as="geometry" />
        </mxCell>
        <mxCell id="vKDBNKoQQVE-0nd1KgR7-53" value="&lt;span style=&quot;font-size: 30px;&quot;&gt;住所入力補助&lt;/span&gt;" style="rounded=1;whiteSpace=wrap;html=1;fillColor=#FFFFFF;strokeWidth=3;" vertex="1" parent="cFaB45KztUIKXS-_cTrr-14">
          <mxGeometry x="1326" y="655" width="210" height="60" as="geometry" />
        </mxCell>
        <mxCell id="vKDBNKoQQVE-0nd1KgR7-54" value="&lt;div style=&quot;&quot;&gt;&lt;font style=&quot;font-size: 30px;&quot;&gt;*証票全体収支報告&lt;/font&gt;&lt;/div&gt;" style="rounded=0;whiteSpace=wrap;html=1;align=right;dashed=1;dashPattern=8 8;verticalAlign=bottom;" vertex="1" parent="cFaB45KztUIKXS-_cTrr-14">
          <mxGeometry x="90" y="1060" width="293" height="46" as="geometry" />
        </mxCell>
        <mxCell id="vKDBNKoQQVE-0nd1KgR7-55" value="&lt;font style=&quot;font-size: 84px;&quot;&gt;○&lt;/font&gt;" style="text;html=1;strokeColor=none;fillColor=none;align=center;verticalAlign=middle;whiteSpace=wrap;rounded=0;fontSize=60;" vertex="1" parent="cFaB45KztUIKXS-_cTrr-14">
          <mxGeometry x="395" y="1069" width="60" height="30" as="geometry" />
        </mxCell>
        <mxCell id="vKDBNKoQQVE-0nd1KgR7-56" value="&lt;font style=&quot;font-size: 48px;&quot;&gt;●&lt;/font&gt;" style="text;html=1;strokeColor=none;fillColor=none;align=center;verticalAlign=middle;whiteSpace=wrap;rounded=0;fontSize=48;" vertex="1" parent="cFaB45KztUIKXS-_cTrr-14">
          <mxGeometry x="395" y="1071" width="60" height="30" as="geometry" />
        </mxCell>
        <mxCell id="vKDBNKoQQVE-0nd1KgR7-57" value="&lt;font style=&quot;font-size: 30px;&quot;&gt;報告対象&lt;/font&gt;" style="text;html=1;strokeColor=none;fillColor=none;align=left;verticalAlign=middle;whiteSpace=wrap;rounded=0;" vertex="1" parent="cFaB45KztUIKXS-_cTrr-14">
          <mxGeometry x="450" y="1058" width="275" height="60" as="geometry" />
        </mxCell>
        <mxCell id="vKDBNKoQQVE-0nd1KgR7-58" value="&lt;font style=&quot;font-size: 84px;&quot;&gt;○&lt;/font&gt;" style="text;html=1;strokeColor=none;fillColor=none;align=center;verticalAlign=middle;whiteSpace=wrap;rounded=0;fontSize=60;" vertex="1" parent="cFaB45KztUIKXS-_cTrr-14">
          <mxGeometry x="625" y="1069" width="60" height="30" as="geometry" />
        </mxCell>
        <mxCell id="vKDBNKoQQVE-0nd1KgR7-59" value="&lt;font style=&quot;font-size: 30px;&quot;&gt;報告除外&lt;/font&gt;" style="text;html=1;strokeColor=none;fillColor=none;align=left;verticalAlign=middle;whiteSpace=wrap;rounded=0;" vertex="1" parent="cFaB45KztUIKXS-_cTrr-14">
          <mxGeometry x="681" y="1059" width="275" height="60" as="geometry" />
        </mxCell>
        <mxCell id="vKDBNKoQQVE-0nd1KgR7-60" value="&lt;span style=&quot;font-size: 30px;&quot;&gt;*合計金額&lt;/span&gt;" style="rounded=0;whiteSpace=wrap;html=1;align=right;dashed=1;dashPattern=8 8;verticalAlign=bottom;" vertex="1" parent="cFaB45KztUIKXS-_cTrr-14">
          <mxGeometry x="55" y="1126" width="330" height="46" as="geometry" />
        </mxCell>
        <mxCell id="vKDBNKoQQVE-0nd1KgR7-61" value="&lt;font style=&quot;font-size: 30px;&quot;&gt;123,456&lt;/font&gt;" style="rounded=0;whiteSpace=wrap;html=1;align=right;" vertex="1" parent="cFaB45KztUIKXS-_cTrr-14">
          <mxGeometry x="403" y="1124" width="250" height="48" as="geometry" />
        </mxCell>
        <mxCell id="vKDBNKoQQVE-0nd1KgR7-62" value="&lt;div style=&quot;&quot;&gt;&lt;div style=&quot;font-family: &amp;quot;MS GothIc&amp;quot;, Consolas, &amp;quot;Courier New&amp;quot;, monospace, Consolas, &amp;quot;Courier New&amp;quot;, monospace; line-height: 19px;&quot;&gt;&lt;font style=&quot;font-size: 30px; background-color: rgb(204, 204, 204);&quot;&gt;&lt;b&gt;組織活動費&lt;/b&gt;&lt;/font&gt;&lt;/div&gt;&lt;/div&gt;" style="rounded=0;whiteSpace=wrap;html=1;align=left;fillColor=#CCCCCC;" vertex="1" parent="cFaB45KztUIKXS-_cTrr-14">
          <mxGeometry x="401" y="1255" width="220" height="48" as="geometry" />
        </mxCell>
        <mxCell id="vKDBNKoQQVE-0nd1KgR7-63" value="&lt;div style=&quot;font-size: 30px;&quot;&gt;&lt;span style=&quot;background-color: initial;&quot;&gt;&lt;font style=&quot;font-size: 30px;&quot;&gt;*&lt;/font&gt;&lt;/span&gt;支出の目的&lt;/div&gt;" style="rounded=0;whiteSpace=wrap;html=1;align=right;dashed=1;dashPattern=8 8;verticalAlign=bottom;" vertex="1" parent="cFaB45KztUIKXS-_cTrr-14">
          <mxGeometry x="149" y="1253" width="230" height="48" as="geometry" />
        </mxCell>
        <mxCell id="vKDBNKoQQVE-0nd1KgR7-64" value="&lt;div style=&quot;&quot;&gt;&lt;span style=&quot;font-size: 30px;&quot;&gt;摘要&lt;/span&gt;&lt;/div&gt;" style="rounded=0;whiteSpace=wrap;html=1;align=left;fillColor=#CCCCCC;" vertex="1" parent="cFaB45KztUIKXS-_cTrr-14">
          <mxGeometry x="400" y="1325" width="220" height="48" as="geometry" />
        </mxCell>
        <mxCell id="vKDBNKoQQVE-0nd1KgR7-65" value="&lt;div style=&quot;&quot;&gt;&lt;span style=&quot;background-color: initial;&quot;&gt;&lt;font style=&quot;font-size: 30px;&quot;&gt;*摘要&lt;/font&gt;&lt;/span&gt;&lt;/div&gt;" style="rounded=0;whiteSpace=wrap;html=1;align=right;dashed=1;dashPattern=8 8;verticalAlign=bottom;" vertex="1" parent="cFaB45KztUIKXS-_cTrr-14">
          <mxGeometry x="149" y="1323" width="230" height="48" as="geometry" />
        </mxCell>
        <mxCell id="vKDBNKoQQVE-0nd1KgR7-66" value="&lt;font style=&quot;font-size: 30px;&quot;&gt;*仕訳項目&lt;/font&gt;" style="rounded=0;whiteSpace=wrap;html=1;align=right;dashed=1;dashPattern=8 8;verticalAlign=bottom;" vertex="1" parent="cFaB45KztUIKXS-_cTrr-14">
          <mxGeometry x="150" y="1191" width="230" height="46" as="geometry" />
        </mxCell>
        <mxCell id="vKDBNKoQQVE-0nd1KgR7-67" value="&lt;div style=&quot;&quot;&gt;&lt;font style=&quot;font-size: 30px;&quot;&gt;▼ (14)&lt;/font&gt;&lt;font style=&quot;font-size: 30px;&quot;&gt;経常経費の内訳&lt;/font&gt;&lt;/div&gt;" style="rounded=0;whiteSpace=wrap;html=1;align=left;" vertex="1" parent="cFaB45KztUIKXS-_cTrr-14">
          <mxGeometry x="401" y="1192" width="347" height="48" as="geometry" />
        </mxCell>
        <mxCell id="vKDBNKoQQVE-0nd1KgR7-68" value="&lt;div style=&quot;&quot;&gt;&lt;font style=&quot;font-size: 30px;&quot;&gt;▼ 3.備品・消耗品費&lt;/font&gt;&lt;/div&gt;" style="rounded=0;whiteSpace=wrap;html=1;align=left;" vertex="1" parent="cFaB45KztUIKXS-_cTrr-14">
          <mxGeometry x="796" y="1192" width="346" height="48" as="geometry" />
        </mxCell>
        <mxCell id="vKDBNKoQQVE-0nd1KgR7-69" value="&lt;div style=&quot;&quot;&gt;&lt;br&gt;&lt;/div&gt;" style="rounded=0;whiteSpace=wrap;html=1;align=left;verticalAlign=top;fillColor=#CCCCCC;" vertex="1" parent="cFaB45KztUIKXS-_cTrr-14">
          <mxGeometry x="396" y="1396" width="460" height="48" as="geometry" />
        </mxCell>
        <mxCell id="vKDBNKoQQVE-0nd1KgR7-70" value="&lt;font style=&quot;font-size: 30px;&quot;&gt;*備考&lt;/font&gt;" style="rounded=0;whiteSpace=wrap;html=1;align=right;dashed=1;dashPattern=8 8;verticalAlign=bottom;" vertex="1" parent="cFaB45KztUIKXS-_cTrr-14">
          <mxGeometry x="149" y="1394" width="230" height="48" as="geometry" />
        </mxCell>
        <mxCell id="vKDBNKoQQVE-0nd1KgR7-71" value="&lt;font style=&quot;font-size: 30px;&quot;&gt;☑交付金に係る支出&lt;/font&gt;" style="text;html=1;strokeColor=none;fillColor=none;align=left;verticalAlign=middle;whiteSpace=wrap;rounded=0;" vertex="1" parent="cFaB45KztUIKXS-_cTrr-14">
          <mxGeometry x="872" y="1394" width="320" height="60" as="geometry" />
        </mxCell>
        <mxCell id="vKDBNKoQQVE-0nd1KgR7-72" value="" style="childLayout=tableLayout;recursiveResize=0;shadow=0;fillColor=default;align=left;" vertex="1" parent="cFaB45KztUIKXS-_cTrr-14">
          <mxGeometry x="80" y="1628" width="1790" height="321" as="geometry" />
        </mxCell>
        <mxCell id="vKDBNKoQQVE-0nd1KgR7-73" value="" style="shape=tableRow;horizontal=0;startSize=0;swimlaneHead=0;swimlaneBody=0;top=0;left=0;bottom=0;right=0;dropTarget=0;collapsible=0;recursiveResize=0;expand=0;fontStyle=0;fillColor=none;strokeColor=inherit;" vertex="1" parent="vKDBNKoQQVE-0nd1KgR7-72">
          <mxGeometry width="1790" height="55" as="geometry" />
        </mxCell>
        <mxCell id="vKDBNKoQQVE-0nd1KgR7-74" value="&lt;font style=&quot;font-size: 30px;&quot;&gt;項目&lt;/font&gt;" style="connectable=0;recursiveResize=0;strokeColor=inherit;fillColor=none;align=center;whiteSpace=wrap;html=1;" vertex="1" parent="vKDBNKoQQVE-0nd1KgR7-73">
          <mxGeometry width="149" height="55" as="geometry">
            <mxRectangle width="149" height="55" as="alternateBounds" />
          </mxGeometry>
        </mxCell>
        <mxCell id="vKDBNKoQQVE-0nd1KgR7-75" value="&lt;font style=&quot;font-size: 30px;&quot;&gt;金額&lt;/font&gt;" style="connectable=0;recursiveResize=0;strokeColor=inherit;fillColor=none;align=center;whiteSpace=wrap;html=1;" vertex="1" parent="vKDBNKoQQVE-0nd1KgR7-73">
          <mxGeometry x="149" width="141" height="55" as="geometry">
            <mxRectangle width="141" height="55" as="alternateBounds" />
          </mxGeometry>
        </mxCell>
        <mxCell id="vKDBNKoQQVE-0nd1KgR7-76" value="&lt;span style=&quot;font-size: 30px;&quot;&gt;報告&lt;/span&gt;" style="connectable=0;recursiveResize=0;strokeColor=inherit;fillColor=none;align=center;whiteSpace=wrap;html=1;" vertex="1" parent="vKDBNKoQQVE-0nd1KgR7-73">
          <mxGeometry x="290" width="140" height="55" as="geometry">
            <mxRectangle width="140" height="55" as="alternateBounds" />
          </mxGeometry>
        </mxCell>
        <mxCell id="vKDBNKoQQVE-0nd1KgR7-87" value="&lt;font style=&quot;font-size: 30px;&quot;&gt;仕訳項目&lt;/font&gt;" style="connectable=0;recursiveResize=0;strokeColor=inherit;fillColor=none;align=center;whiteSpace=wrap;html=1;" vertex="1" parent="vKDBNKoQQVE-0nd1KgR7-73">
          <mxGeometry x="430" width="380" height="55" as="geometry">
            <mxRectangle width="380" height="55" as="alternateBounds" />
          </mxGeometry>
        </mxCell>
        <mxCell id="vKDBNKoQQVE-0nd1KgR7-90" value="&lt;font style=&quot;font-size: 30px;&quot;&gt;支出の目的&lt;/font&gt;" style="connectable=0;recursiveResize=0;strokeColor=inherit;fillColor=none;align=center;whiteSpace=wrap;html=1;" vertex="1" parent="vKDBNKoQQVE-0nd1KgR7-73">
          <mxGeometry x="810" width="240" height="55" as="geometry">
            <mxRectangle width="240" height="55" as="alternateBounds" />
          </mxGeometry>
        </mxCell>
        <mxCell id="vKDBNKoQQVE-0nd1KgR7-93" value="&lt;font style=&quot;font-size: 30px;&quot;&gt;摘要&lt;/font&gt;" style="connectable=0;recursiveResize=0;strokeColor=inherit;fillColor=none;align=center;whiteSpace=wrap;html=1;" vertex="1" parent="vKDBNKoQQVE-0nd1KgR7-73">
          <mxGeometry x="1050" width="250" height="55" as="geometry">
            <mxRectangle width="250" height="55" as="alternateBounds" />
          </mxGeometry>
        </mxCell>
        <mxCell id="vKDBNKoQQVE-0nd1KgR7-96" value="&lt;font style=&quot;font-size: 30px;&quot;&gt;備考&lt;/font&gt;" style="connectable=0;recursiveResize=0;strokeColor=inherit;fillColor=none;align=center;whiteSpace=wrap;html=1;" vertex="1" parent="vKDBNKoQQVE-0nd1KgR7-73">
          <mxGeometry x="1300" width="490" height="55" as="geometry">
            <mxRectangle width="490" height="55" as="alternateBounds" />
          </mxGeometry>
        </mxCell>
        <mxCell id="vKDBNKoQQVE-0nd1KgR7-77" style="shape=tableRow;horizontal=0;startSize=0;swimlaneHead=0;swimlaneBody=0;top=0;left=0;bottom=0;right=0;dropTarget=0;collapsible=0;recursiveResize=0;expand=0;fontStyle=0;fillColor=none;strokeColor=inherit;" vertex="1" parent="vKDBNKoQQVE-0nd1KgR7-72">
          <mxGeometry y="55" width="1790" height="126" as="geometry" />
        </mxCell>
        <mxCell id="vKDBNKoQQVE-0nd1KgR7-78" value="&lt;font style=&quot;font-size: 30px;&quot;&gt;ﾉｰﾄ&lt;/font&gt;" style="connectable=0;recursiveResize=0;strokeColor=inherit;fillColor=none;align=left;whiteSpace=wrap;html=1;" vertex="1" parent="vKDBNKoQQVE-0nd1KgR7-77">
          <mxGeometry width="149" height="126" as="geometry">
            <mxRectangle width="149" height="126" as="alternateBounds" />
          </mxGeometry>
        </mxCell>
        <mxCell id="vKDBNKoQQVE-0nd1KgR7-79" value="&lt;font style=&quot;font-size: 30px;&quot;&gt;234,567&lt;/font&gt;" style="connectable=0;recursiveResize=0;strokeColor=inherit;fillColor=none;align=right;whiteSpace=wrap;html=1;" vertex="1" parent="vKDBNKoQQVE-0nd1KgR7-77">
          <mxGeometry x="149" width="141" height="126" as="geometry">
            <mxRectangle width="141" height="126" as="alternateBounds" />
          </mxGeometry>
        </mxCell>
        <mxCell id="vKDBNKoQQVE-0nd1KgR7-80" value="&lt;font style=&quot;font-size: 30px;&quot;&gt;☐除外&lt;/font&gt;" style="connectable=0;recursiveResize=0;strokeColor=inherit;fillColor=none;align=center;whiteSpace=wrap;html=1;" vertex="1" parent="vKDBNKoQQVE-0nd1KgR7-77">
          <mxGeometry x="290" width="140" height="126" as="geometry">
            <mxRectangle width="140" height="126" as="alternateBounds" />
          </mxGeometry>
        </mxCell>
        <mxCell id="vKDBNKoQQVE-0nd1KgR7-88" style="connectable=0;recursiveResize=0;strokeColor=inherit;fillColor=none;align=center;whiteSpace=wrap;html=1;" vertex="1" parent="vKDBNKoQQVE-0nd1KgR7-77">
          <mxGeometry x="430" width="380" height="126" as="geometry">
            <mxRectangle width="380" height="126" as="alternateBounds" />
          </mxGeometry>
        </mxCell>
        <mxCell id="vKDBNKoQQVE-0nd1KgR7-91" style="connectable=0;recursiveResize=0;strokeColor=inherit;fillColor=none;align=center;whiteSpace=wrap;html=1;" vertex="1" parent="vKDBNKoQQVE-0nd1KgR7-77">
          <mxGeometry x="810" width="240" height="126" as="geometry">
            <mxRectangle width="240" height="126" as="alternateBounds" />
          </mxGeometry>
        </mxCell>
        <mxCell id="vKDBNKoQQVE-0nd1KgR7-94" style="connectable=0;recursiveResize=0;strokeColor=inherit;fillColor=none;align=center;whiteSpace=wrap;html=1;" vertex="1" parent="vKDBNKoQQVE-0nd1KgR7-77">
          <mxGeometry x="1050" width="250" height="126" as="geometry">
            <mxRectangle width="250" height="126" as="alternateBounds" />
          </mxGeometry>
        </mxCell>
        <mxCell id="vKDBNKoQQVE-0nd1KgR7-97" style="connectable=0;recursiveResize=0;strokeColor=inherit;fillColor=none;align=center;whiteSpace=wrap;html=1;" vertex="1" parent="vKDBNKoQQVE-0nd1KgR7-77">
          <mxGeometry x="1300" width="490" height="126" as="geometry">
            <mxRectangle width="490" height="126" as="alternateBounds" />
          </mxGeometry>
        </mxCell>
        <mxCell id="vKDBNKoQQVE-0nd1KgR7-81" style="shape=tableRow;horizontal=0;startSize=0;swimlaneHead=0;swimlaneBody=0;top=0;left=0;bottom=0;right=0;dropTarget=0;collapsible=0;recursiveResize=0;expand=0;fontStyle=0;fillColor=none;strokeColor=inherit;" vertex="1" parent="vKDBNKoQQVE-0nd1KgR7-72">
          <mxGeometry y="181" width="1790" height="140" as="geometry" />
        </mxCell>
        <mxCell id="vKDBNKoQQVE-0nd1KgR7-82" value="&lt;font style=&quot;font-size: 30px;&quot;&gt;ｱｲｽｸﾘｰﾑ&lt;/font&gt;" style="connectable=0;recursiveResize=0;strokeColor=inherit;fillColor=none;align=left;whiteSpace=wrap;html=1;" vertex="1" parent="vKDBNKoQQVE-0nd1KgR7-81">
          <mxGeometry width="149" height="140" as="geometry">
            <mxRectangle width="149" height="140" as="alternateBounds" />
          </mxGeometry>
        </mxCell>
        <mxCell id="vKDBNKoQQVE-0nd1KgR7-83" value="&lt;font style=&quot;font-size: 30px;&quot;&gt;34,567&lt;/font&gt;" style="connectable=0;recursiveResize=0;strokeColor=inherit;fillColor=none;align=right;whiteSpace=wrap;html=1;" vertex="1" parent="vKDBNKoQQVE-0nd1KgR7-81">
          <mxGeometry x="149" width="141" height="140" as="geometry">
            <mxRectangle width="141" height="140" as="alternateBounds" />
          </mxGeometry>
        </mxCell>
        <mxCell id="vKDBNKoQQVE-0nd1KgR7-84" value="&lt;font style=&quot;font-size: 30px;&quot;&gt;☑除外&lt;/font&gt;" style="connectable=0;recursiveResize=0;strokeColor=inherit;fillColor=none;align=center;whiteSpace=wrap;html=1;" vertex="1" parent="vKDBNKoQQVE-0nd1KgR7-81">
          <mxGeometry x="290" width="140" height="140" as="geometry">
            <mxRectangle width="140" height="140" as="alternateBounds" />
          </mxGeometry>
        </mxCell>
        <mxCell id="vKDBNKoQQVE-0nd1KgR7-89" style="connectable=0;recursiveResize=0;strokeColor=inherit;fillColor=none;align=center;whiteSpace=wrap;html=1;" vertex="1" parent="vKDBNKoQQVE-0nd1KgR7-81">
          <mxGeometry x="430" width="380" height="140" as="geometry">
            <mxRectangle width="380" height="140" as="alternateBounds" />
          </mxGeometry>
        </mxCell>
        <mxCell id="vKDBNKoQQVE-0nd1KgR7-92" style="connectable=0;recursiveResize=0;strokeColor=inherit;fillColor=none;align=center;whiteSpace=wrap;html=1;" vertex="1" parent="vKDBNKoQQVE-0nd1KgR7-81">
          <mxGeometry x="810" width="240" height="140" as="geometry">
            <mxRectangle width="240" height="140" as="alternateBounds" />
          </mxGeometry>
        </mxCell>
        <mxCell id="vKDBNKoQQVE-0nd1KgR7-95" style="connectable=0;recursiveResize=0;strokeColor=inherit;fillColor=none;align=center;whiteSpace=wrap;html=1;" vertex="1" parent="vKDBNKoQQVE-0nd1KgR7-81">
          <mxGeometry x="1050" width="250" height="140" as="geometry">
            <mxRectangle width="250" height="140" as="alternateBounds" />
          </mxGeometry>
        </mxCell>
        <mxCell id="vKDBNKoQQVE-0nd1KgR7-98" style="connectable=0;recursiveResize=0;strokeColor=inherit;fillColor=none;align=center;whiteSpace=wrap;html=1;" vertex="1" parent="vKDBNKoQQVE-0nd1KgR7-81">
          <mxGeometry x="1300" width="490" height="140" as="geometry">
            <mxRectangle width="490" height="140" as="alternateBounds" />
          </mxGeometry>
        </mxCell>
        <mxCell id="vKDBNKoQQVE-0nd1KgR7-85" value="&lt;span style=&quot;font-size: 30px;&quot;&gt;細目別に判断&lt;/span&gt;" style="rounded=1;whiteSpace=wrap;html=1;fillColor=#FFFFFF;strokeWidth=3;" vertex="1" parent="cFaB45KztUIKXS-_cTrr-14">
          <mxGeometry x="156" y="1485" width="210" height="60" as="geometry" />
        </mxCell>
        <mxCell id="vKDBNKoQQVE-0nd1KgR7-86" value="&lt;span style=&quot;font-size: 30px;&quot;&gt;1件ずつ手入力&lt;/span&gt;" style="rounded=1;whiteSpace=wrap;html=1;fillColor=#FFFFFF;strokeWidth=3;" vertex="1" parent="cFaB45KztUIKXS-_cTrr-14">
          <mxGeometry x="619" y="78" width="210" height="60" as="geometry" />
        </mxCell>
        <mxCell id="vKDBNKoQQVE-0nd1KgR7-99" value="&lt;div style=&quot;&quot;&gt;&lt;div style=&quot;font-family: &amp;quot;MS GothIc&amp;quot;, Consolas, &amp;quot;Courier New&amp;quot;, monospace, Consolas, &amp;quot;Courier New&amp;quot;, monospace; line-height: 19px;&quot;&gt;&lt;font style=&quot;font-size: 30px; background-color: rgb(204, 204, 204);&quot;&gt;&lt;b&gt;摘要&lt;/b&gt;&lt;/font&gt;&lt;/div&gt;&lt;/div&gt;" style="rounded=0;whiteSpace=wrap;html=1;align=left;fillColor=#CCCCCC;" vertex="1" parent="cFaB45KztUIKXS-_cTrr-14">
          <mxGeometry x="1146" y="1693" width="220" height="48" as="geometry" />
        </mxCell>
        <mxCell id="vKDBNKoQQVE-0nd1KgR7-100" value="&lt;div style=&quot;&quot;&gt;&lt;div style=&quot;font-family: &amp;quot;MS GothIc&amp;quot;, Consolas, &amp;quot;Courier New&amp;quot;, monospace, Consolas, &amp;quot;Courier New&amp;quot;, monospace; line-height: 19px;&quot;&gt;&lt;font style=&quot;font-size: 30px; background-color: rgb(204, 204, 204);&quot;&gt;&lt;b&gt;組織活動費&lt;/b&gt;&lt;/font&gt;&lt;/div&gt;&lt;/div&gt;" style="rounded=0;whiteSpace=wrap;html=1;align=left;fillColor=#CCCCCC;" vertex="1" parent="cFaB45KztUIKXS-_cTrr-14">
          <mxGeometry x="900" y="1693" width="220" height="48" as="geometry" />
        </mxCell>
        <mxCell id="vKDBNKoQQVE-0nd1KgR7-101" value="&lt;div style=&quot;&quot;&gt;&lt;font style=&quot;font-size: 30px;&quot;&gt;▼ (14)&lt;/font&gt;&lt;font style=&quot;font-size: 30px;&quot;&gt;経常経費の内訳&lt;/font&gt;&lt;/div&gt;" style="rounded=0;whiteSpace=wrap;html=1;align=left;" vertex="1" parent="cFaB45KztUIKXS-_cTrr-14">
          <mxGeometry x="522" y="1692" width="347" height="48" as="geometry" />
        </mxCell>
        <mxCell id="vKDBNKoQQVE-0nd1KgR7-102" value="&lt;div style=&quot;&quot;&gt;&lt;font style=&quot;font-size: 30px;&quot;&gt;▼ 3.備品・消耗品費&lt;/font&gt;&lt;/div&gt;" style="rounded=0;whiteSpace=wrap;html=1;align=left;" vertex="1" parent="cFaB45KztUIKXS-_cTrr-14">
          <mxGeometry x="522" y="1750" width="346" height="48" as="geometry" />
        </mxCell>
        <mxCell id="vKDBNKoQQVE-0nd1KgR7-103" value="&lt;div style=&quot;&quot;&gt;&lt;br&gt;&lt;/div&gt;" style="rounded=0;whiteSpace=wrap;html=1;align=left;verticalAlign=top;fillColor=#CCCCCC;" vertex="1" parent="cFaB45KztUIKXS-_cTrr-14">
          <mxGeometry x="1388" y="1694" width="460" height="48" as="geometry" />
        </mxCell>
        <mxCell id="vKDBNKoQQVE-0nd1KgR7-104" value="&lt;font style=&quot;font-size: 30px;&quot;&gt;☑交付金に係る支出&lt;/font&gt;" style="text;html=1;strokeColor=none;fillColor=none;align=left;verticalAlign=middle;whiteSpace=wrap;rounded=0;" vertex="1" parent="cFaB45KztUIKXS-_cTrr-14">
          <mxGeometry x="1387" y="1743" width="320" height="60" as="geometry" />
        </mxCell>
        <mxCell id="vKDBNKoQQVE-0nd1KgR7-105" value="&lt;div style=&quot;&quot;&gt;&lt;div style=&quot;font-family: &amp;quot;MS GothIc&amp;quot;, Consolas, &amp;quot;Courier New&amp;quot;, monospace, Consolas, &amp;quot;Courier New&amp;quot;, monospace; line-height: 19px;&quot;&gt;&lt;font style=&quot;font-size: 30px; background-color: rgb(204, 204, 204);&quot;&gt;&lt;b&gt;摘要&lt;/b&gt;&lt;/font&gt;&lt;/div&gt;&lt;/div&gt;" style="rounded=0;whiteSpace=wrap;html=1;align=left;fillColor=#CCCCCC;" vertex="1" parent="cFaB45KztUIKXS-_cTrr-14">
          <mxGeometry x="1146" y="1823" width="220" height="48" as="geometry" />
        </mxCell>
        <mxCell id="vKDBNKoQQVE-0nd1KgR7-106" value="&lt;div style=&quot;&quot;&gt;&lt;div style=&quot;font-family: &amp;quot;MS GothIc&amp;quot;, Consolas, &amp;quot;Courier New&amp;quot;, monospace, Consolas, &amp;quot;Courier New&amp;quot;, monospace; line-height: 19px;&quot;&gt;&lt;font style=&quot;font-size: 30px; background-color: rgb(204, 204, 204);&quot;&gt;&lt;b&gt;組織活動費&lt;/b&gt;&lt;/font&gt;&lt;/div&gt;&lt;/div&gt;" style="rounded=0;whiteSpace=wrap;html=1;align=left;fillColor=#CCCCCC;" vertex="1" parent="cFaB45KztUIKXS-_cTrr-14">
          <mxGeometry x="900" y="1823" width="220" height="48" as="geometry" />
        </mxCell>
        <mxCell id="vKDBNKoQQVE-0nd1KgR7-107" value="&lt;div style=&quot;&quot;&gt;&lt;font style=&quot;font-size: 30px;&quot;&gt;▼ (14)&lt;/font&gt;&lt;font style=&quot;font-size: 30px;&quot;&gt;経常経費の内訳&lt;/font&gt;&lt;/div&gt;" style="rounded=0;whiteSpace=wrap;html=1;align=left;" vertex="1" parent="cFaB45KztUIKXS-_cTrr-14">
          <mxGeometry x="522" y="1822" width="347" height="48" as="geometry" />
        </mxCell>
        <mxCell id="vKDBNKoQQVE-0nd1KgR7-108" value="&lt;div style=&quot;&quot;&gt;&lt;font style=&quot;font-size: 30px;&quot;&gt;▼ 3.備品・消耗品費&lt;/font&gt;&lt;/div&gt;" style="rounded=0;whiteSpace=wrap;html=1;align=left;" vertex="1" parent="cFaB45KztUIKXS-_cTrr-14">
          <mxGeometry x="522" y="1880" width="346" height="48" as="geometry" />
        </mxCell>
        <mxCell id="vKDBNKoQQVE-0nd1KgR7-109" value="&lt;div style=&quot;&quot;&gt;&lt;br&gt;&lt;/div&gt;" style="rounded=0;whiteSpace=wrap;html=1;align=left;verticalAlign=top;fillColor=#CCCCCC;" vertex="1" parent="cFaB45KztUIKXS-_cTrr-14">
          <mxGeometry x="1388" y="1824" width="460" height="48" as="geometry" />
        </mxCell>
        <mxCell id="vKDBNKoQQVE-0nd1KgR7-110" value="&lt;font style=&quot;font-size: 30px;&quot;&gt;☑交付金に係る支出&lt;/font&gt;" style="text;html=1;strokeColor=none;fillColor=none;align=left;verticalAlign=middle;whiteSpace=wrap;rounded=0;" vertex="1" parent="cFaB45KztUIKXS-_cTrr-14">
          <mxGeometry x="1387" y="1873" width="320" height="60" as="geometry" />
        </mxCell>
        <mxCell id="vKDBNKoQQVE-0nd1KgR7-113" value="&lt;div style=&quot;&quot;&gt;&lt;font style=&quot;font-size: 30px;&quot;&gt;スクロール&lt;/font&gt;&lt;/div&gt;" style="rounded=0;whiteSpace=wrap;html=1;align=left;verticalAlign=top;fillColor=#FFFFCC;" vertex="1" parent="cFaB45KztUIKXS-_cTrr-14">
          <mxGeometry x="76" y="1950" width="1524" height="48" as="geometry" />
        </mxCell>
        <mxCell id="vKDBNKoQQVE-0nd1KgR7-114" value="&lt;div style=&quot;&quot;&gt;&lt;br&gt;&lt;/div&gt;" style="rounded=0;whiteSpace=wrap;html=1;align=left;verticalAlign=top;fillColor=#FFFF66;" vertex="1" parent="cFaB45KztUIKXS-_cTrr-14">
          <mxGeometry x="260" y="1959" width="290" height="29" as="geometry" />
        </mxCell>
        <mxCell id="vKDBNKoQQVE-0nd1KgR7-115" value="&lt;span style=&quot;font-size: 30px;&quot;&gt;証票細目&lt;/span&gt;" style="rounded=0;whiteSpace=wrap;html=1;align=left;dashed=1;dashPattern=8 8;verticalAlign=bottom;" vertex="1" parent="cFaB45KztUIKXS-_cTrr-14">
          <mxGeometry x="65" y="1566" width="330" height="46" as="geometry" />
        </mxCell>
      </root>
    </mxGraphModel>
  </diagram>
</mxfile>
